<svg version="1.1" id="Layer_1" xmlns="http://www.w3.org/2000/svg" xmlns:xlink="http://www.w3.org/1999/xlink" x="0px" y="0px"
	 width="100%" viewBox="0 0 256 256" enable-background="new 0 0 256 256" xml:space="preserve">
<path fill="#FEFDFE" opacity="1.000000" stroke="none" 
	d="
M257.000000,12.000000 
	C257.000000,89.687561 257.000000,167.375122 256.531342,245.532928 
	C171.041794,246.002121 86.020897,246.001053 1.000000,246.000000 
	C1.000000,168.312439 1.000000,90.624878 1.468655,12.467056 
	C86.958206,11.997864 171.979111,11.998932 257.000000,12.000000 
M156.240463,21.099186 
	C152.698120,20.992826 149.136856,21.081867 145.617172,20.741371 
	C137.029816,19.910633 128.556793,17.435484 119.818039,18.945780 
	C116.983444,19.435675 114.218216,20.385918 111.373238,20.743092 
	C106.841362,21.312050 102.102257,20.917627 97.741631,22.050299 
	C72.202118,28.684183 49.909145,40.769474 32.484009,61.160854 
	C11.718662,85.461037 2.343909,113.245338 7.110918,144.994995 
	C12.208397,178.945679 30.923546,204.313187 59.607235,222.209961 
	C82.697891,236.617065 108.106430,242.670303 135.518753,241.353561 
	C161.576767,240.101898 185.074615,232.374329 206.008896,216.929520 
	C229.830856,199.354248 245.061798,176.605591 250.366409,146.907104 
	C253.874222,127.268211 251.829849,108.543541 244.109116,90.827545 
	C227.446136,52.592674 197.092545,30.705452 156.240463,21.099186 
z"/>
<path fill="#47704C" opacity="1.000000" stroke="none" 
	d="
M257.000000,11.517044 
	C171.979111,11.998932 86.958206,11.997864 1.468655,11.998398 
	C1.000000,8.339489 1.000000,4.678977 1.000001,1.021966 
	C86.333336,1.025465 171.666672,1.025465 257.000000,1.025465 
	C257.000000,4.378650 257.000000,7.706369 257.000000,11.517044 
z"/>
<path fill="#47704C" opacity="1.000000" stroke="none" 
	d="
M1.000000,246.482956 
	C86.020897,246.001053 171.041794,246.002121 256.531342,246.001587 
	C257.000000,249.660507 257.000000,253.321030 257.000000,256.978027 
	C171.666656,256.974548 86.333328,256.974548 1.000000,256.974548 
	C1.000000,253.621353 1.000000,250.293625 1.000000,246.482956 
z"/>
<path fill="#88011B" opacity="1.000000" stroke="none" 
	d="
M156.613312,21.295715 
	C197.092545,30.705452 227.446136,52.592674 244.109116,90.827545 
	C251.829849,108.543541 253.874222,127.268211 250.366409,146.907104 
	C245.061798,176.605591 229.830856,199.354248 206.008896,216.929520 
	C185.074615,232.374329 161.576767,240.101898 135.518753,241.353561 
	C108.106430,242.670303 82.697891,236.617065 59.607235,222.209961 
	C30.923546,204.313187 12.208397,178.945679 7.110918,144.994995 
	C2.343909,113.245338 11.718662,85.461037 32.484009,61.160854 
	C49.909145,40.769474 72.202118,28.684183 97.741631,22.050299 
	C102.102257,20.917627 106.841362,21.312050 111.373238,20.743092 
	C114.218216,20.385918 116.983444,19.435675 119.818039,18.945780 
	C128.556793,17.435484 137.029816,19.910633 145.617172,20.741371 
	C149.136856,21.081867 152.698120,20.992826 156.613312,21.295715 
M149.751846,95.322433 
	C152.029175,103.057106 160.679871,102.733047 165.029221,98.420128 
	C168.478073,95.000153 171.179413,90.826317 174.498016,86.626060 
	C175.261765,86.717125 176.986115,86.922729 178.729309,87.130585 
	C178.115723,89.865334 177.312668,92.359818 177.086929,94.905495 
	C176.972977,96.190834 177.904419,97.568863 178.363174,98.904984 
	C179.394730,97.856354 180.853790,96.983330 181.371292,95.723526 
	C182.547089,92.861168 183.260040,89.808670 184.137939,86.910042 
	C186.073074,86.823555 187.702637,86.724670 189.333603,86.687538 
	C190.324509,86.664978 191.317596,86.737823 192.309692,86.767807 
	C192.264786,87.951828 192.627136,89.378128 192.095139,90.272369 
	C190.745605,92.540855 188.995117,94.570816 187.306091,96.828796 
	C192.996643,98.191635 197.900467,94.420029 198.961975,88.338379 
	C199.856369,83.214073 196.898346,81.209740 185.936249,79.672394 
	C186.608704,76.960823 187.502502,74.302498 187.847763,71.574745 
	C188.026581,70.161942 187.233551,68.626122 186.879593,67.145882 
	C185.726059,68.245720 184.135376,69.144913 183.517670,70.490692 
	C182.498047,72.712143 182.429718,75.387497 181.323914,77.545326 
	C180.706924,78.749260 178.804916,79.919052 177.483231,79.917664 
	C176.604065,79.916740 175.474228,77.925522 174.931213,76.626709 
	C174.516266,75.634216 174.917465,74.325356 174.831253,73.166466 
	C174.362305,66.861946 170.049438,63.734631 163.756195,64.737022 
	C156.947433,65.821518 153.588821,70.556488 151.647980,76.339577 
	C150.578018,79.527779 149.088425,80.362885 145.984848,80.219109 
	C140.835922,79.980560 135.664795,80.265015 130.508865,80.120560 
	C126.098694,79.996994 125.106956,81.753304 127.478096,86.300156 
	C131.532425,86.534256 135.607086,87.134926 139.636032,86.911354 
	C144.889038,86.619858 149.268707,86.696808 148.245178,93.893135 
	C148.201797,94.198051 148.844009,94.600487 149.751846,95.322433 
M147.591003,150.415909 
	C147.456345,141.955368 147.321671,133.494812 147.200989,124.154030 
	C147.200989,122.083870 147.200989,120.013702 147.200989,117.438065 
	C143.560776,117.677887 140.668671,118.057465 137.784058,118.007156 
	C134.682953,117.953072 134.291031,119.634308 134.413422,122.118225 
	C134.687958,127.690628 134.848969,133.268616 135.020279,139.800797 
	C134.721207,161.670029 134.422134,183.539261 134.339752,206.207626 
	C134.353149,207.204559 134.429108,208.205246 134.369705,209.197830 
	C134.008804,215.228195 138.558655,213.028107 141.330185,213.082001 
	C144.465469,213.142975 145.126450,211.476791 144.545914,208.115479 
	C143.260773,200.674515 142.697418,193.098969 142.066879,185.559311 
	C141.775726,182.077896 142.017227,178.551910 142.017227,174.770294 
	C145.647751,176.443588 148.308456,178.253342 151.227966,178.906830 
	C160.233246,180.922531 167.946854,178.175125 174.445023,171.683090 
	C175.823654,170.305771 177.537048,169.263535 179.435318,167.806656 
	C182.194641,178.582397 186.028229,180.756348 195.876663,177.923935 
	C197.600861,177.428055 199.353622,176.814667 200.871292,175.890991 
	C201.948685,175.235245 202.653000,173.966537 203.523865,172.971436 
	C202.384506,172.709366 201.237930,172.194839 200.106995,172.227173 
	C193.886871,172.404968 192.548264,171.302078 191.978088,164.225830 
	C191.986206,160.408722 192.083679,156.589233 191.982590,152.775009 
	C191.808212,146.195663 191.510376,139.619583 191.447464,132.230713 
	C191.679382,128.290680 191.986832,124.352463 192.081573,120.409142 
	C192.101303,119.587418 191.352707,118.038651 190.926895,118.027573 
	C187.699249,117.943550 184.376251,117.789879 181.288055,118.522415 
	C180.441010,118.723343 179.939789,121.845360 179.876511,123.647873 
	C179.489639,134.667801 179.678574,145.724304 178.848862,156.706146 
	C178.360306,163.172775 174.126221,167.709320 168.107422,170.441284 
	C159.139359,174.511963 149.866699,169.934006 148.025742,160.298355 
	C147.442444,157.245331 147.324890,154.103302 147.591003,150.415909 
M69.521935,89.065979 
	C67.710762,89.105576 65.895332,89.243744 64.089226,89.165810 
	C59.181744,88.954063 54.278679,88.509750 49.372742,88.493431 
	C48.289474,88.489830 47.201595,89.873268 46.115837,90.618011 
	C46.939339,91.409370 47.632961,92.492073 48.614243,92.929504 
	C50.475250,93.759109 52.576237,94.056168 54.423180,94.908806 
	C55.211208,95.272591 55.611786,96.475647 56.076851,98.332375 
	C56.051121,118.618530 56.010937,138.904709 56.034435,159.190796 
	C56.035896,160.449356 56.537949,161.707336 56.780704,163.759674 
	C57.198895,168.937546 56.318436,173.556885 50.771835,176.772934 
	C52.970894,178.074921 54.907780,178.959717 56.842354,178.954697 
	C60.719536,178.944626 64.590958,178.304474 68.472855,178.182953 
	C75.959900,177.948593 83.661499,178.943726 90.891212,177.504913 
	C100.423782,175.607819 108.861969,170.725449 113.740845,161.616684 
	C120.265213,149.435791 117.400917,132.576767 101.216301,128.986450 
	C98.992165,128.493057 96.736198,128.143173 95.386818,127.892525 
	C99.155991,125.121010 103.958954,122.490799 107.599037,118.733871 
	C116.455566,109.593048 113.325302,93.065086 99.568123,89.562836 
	C98.013008,89.166946 96.467209,88.734444 94.478294,87.594505 
	C86.804588,87.442780 79.131088,87.268990 71.456627,87.195778 
	C71.010445,87.191521 70.556488,88.002464 69.521935,89.065979 
z"/>
<path fill="#FAF7F7" opacity="1.000000" stroke="none" 
	d="
M56.188431,97.297318 
	C55.611786,96.475647 55.211208,95.272591 54.423180,94.908806 
	C52.576237,94.056168 50.475250,93.759109 48.614243,92.929504 
	C47.632961,92.492073 46.939339,91.409370 46.115837,90.618011 
	C47.201595,89.873268 48.289474,88.489830 49.372742,88.493431 
	C54.278679,88.509750 59.181744,88.954063 64.089226,89.165810 
	C65.895332,89.243744 67.710762,89.105576 70.274307,88.713852 
	C78.990150,88.347450 86.953621,88.333183 94.917084,88.318909 
	C96.467209,88.734444 98.013008,89.166946 99.568123,89.562836 
	C113.325302,93.065086 116.455566,109.593048 107.599037,118.733871 
	C103.958954,122.490799 99.155991,125.121010 95.386818,127.892525 
	C96.736198,128.143173 98.992165,128.493057 101.216301,128.986450 
	C117.400917,132.576767 120.265213,149.435791 113.740845,161.616684 
	C108.861969,170.725449 100.423782,175.607819 90.891212,177.504913 
	C83.661499,178.943726 75.959900,177.948593 68.472855,178.182953 
	C64.590958,178.304474 60.719536,178.944626 56.842354,178.954697 
	C54.907780,178.959717 52.970894,178.074921 50.771835,176.772934 
	C56.318436,173.556885 57.198895,168.937546 56.953781,162.920166 
	C57.141525,141.863159 57.175404,121.645622 57.128510,101.428268 
	C57.125317,100.050560 56.515907,98.674271 56.188431,97.297318 
M84.800949,124.990402 
	C94.304665,123.591492 98.469315,118.767357 98.983925,108.561531 
	C99.352119,101.259514 95.664268,97.041916 86.298996,94.518364 
	C80.967445,94.518364 75.635895,94.518364 69.735260,94.518364 
	C69.735260,105.508385 69.735260,115.466789 69.735260,126.066635 
	C74.640785,125.714409 79.327652,125.377884 84.800949,124.990402 
M74.906616,172.136246 
	C79.054367,171.969147 83.248215,172.134598 87.340485,171.567276 
	C96.491875,170.298660 103.197327,162.093964 103.097664,150.519318 
	C102.999130,139.075775 96.680969,132.507126 85.649673,131.834213 
	C81.073479,131.555038 76.468285,131.751312 71.005150,131.717148 
	C70.414040,132.137985 69.307709,132.557831 69.306885,132.979843 
	C69.283852,144.760864 69.334877,156.542542 69.470222,168.322998 
	C69.503510,171.220474 71.235748,172.321457 74.906616,172.136246 
z"/>
<path fill="#FAF6F6" opacity="1.000000" stroke="none" 
	d="
M135.056183,138.844330 
	C134.848969,133.268616 134.687958,127.690628 134.413422,122.118225 
	C134.291031,119.634308 134.682953,117.953072 137.784058,118.007156 
	C140.668671,118.057465 143.560776,117.677887 147.200989,117.438065 
	C147.200989,120.013702 147.200989,122.083870 146.967010,125.011391 
	C146.820099,134.246506 146.907150,142.624268 146.994202,151.002014 
	C147.324890,154.103302 147.442444,157.245331 148.025742,160.298355 
	C149.866699,169.934006 159.139359,174.511963 168.107422,170.441284 
	C174.126221,167.709320 178.360306,163.172775 178.848862,156.706146 
	C179.678574,145.724304 179.489639,134.667801 179.876511,123.647873 
	C179.939789,121.845360 180.441010,118.723343 181.288055,118.522415 
	C184.376251,117.789879 187.699249,117.943550 190.926895,118.027573 
	C191.352707,118.038651 192.101303,119.587418 192.081573,120.409142 
	C191.986832,124.352463 191.679382,128.290680 191.242859,133.090546 
	C191.030212,142.685272 190.973801,151.420654 191.056381,160.154709 
	C191.072266,161.834808 191.633652,163.509750 191.943390,165.187073 
	C192.548264,171.302078 193.886871,172.404968 200.106995,172.227173 
	C201.237930,172.194839 202.384506,172.709366 203.523865,172.971436 
	C202.653000,173.966537 201.948685,175.235245 200.871292,175.890991 
	C199.353622,176.814667 197.600861,177.428055 195.876663,177.923935 
	C186.028229,180.756348 182.194641,178.582397 179.435318,167.806656 
	C177.537048,169.263535 175.823654,170.305771 174.445023,171.683090 
	C167.946854,178.175125 160.233246,180.922531 151.227966,178.906830 
	C148.308456,178.253342 145.647751,176.443588 142.017227,174.770294 
	C142.017227,178.551910 141.775726,182.077896 142.066879,185.559311 
	C142.697418,193.098969 143.260773,200.674515 144.545914,208.115479 
	C145.126450,211.476791 144.465469,213.142975 141.330185,213.082001 
	C138.558655,213.028107 134.008804,215.228195 134.369705,209.197830 
	C134.429108,208.205246 134.353149,207.204559 134.595917,205.529861 
	C135.225586,183.372009 135.605713,161.892029 135.933197,140.411240 
	C135.941101,139.893509 135.361679,139.366837 135.056183,138.844330 
z"/>
<path fill="#F4ECED" opacity="1.000000" stroke="none" 
	d="
M127.082199,85.531586 
	C125.106956,81.753304 126.098694,79.996994 130.508865,80.120560 
	C135.664795,80.265015 140.835922,79.980560 145.984848,80.219109 
	C149.088425,80.362885 150.578018,79.527779 151.647980,76.339577 
	C153.588821,70.556488 156.947433,65.821518 163.756195,64.737022 
	C170.049438,63.734631 174.362305,66.861946 174.831253,73.166466 
	C174.917465,74.325356 174.516266,75.634216 174.931213,76.626709 
	C175.474228,77.925522 176.604065,79.916740 177.483231,79.917664 
	C178.804916,79.919052 180.706924,78.749260 181.323914,77.545326 
	C182.429718,75.387497 182.498047,72.712143 183.517670,70.490692 
	C184.135376,69.144913 185.726059,68.245720 186.879593,67.145882 
	C187.233551,68.626122 188.026581,70.161942 187.847763,71.574745 
	C187.502502,74.302498 186.608704,76.960823 185.936249,79.672394 
	C196.898346,81.209740 199.856369,83.214073 198.961975,88.338379 
	C197.900467,94.420029 192.996643,98.191635 187.306091,96.828796 
	C188.995117,94.570816 190.745605,92.540855 192.095139,90.272369 
	C192.627136,89.378128 192.264786,87.951828 192.309692,86.767807 
	C191.317596,86.737823 190.324509,86.664978 189.333603,86.687538 
	C187.702637,86.724670 186.073074,86.823555 184.137939,86.910042 
	C183.260040,89.808670 182.547089,92.861168 181.371292,95.723526 
	C180.853790,96.983330 179.394730,97.856354 178.363174,98.904984 
	C177.904419,97.568863 176.972977,96.190834 177.086929,94.905495 
	C177.312668,92.359818 178.115723,89.865334 178.729309,87.130585 
	C176.986115,86.922729 175.261765,86.717125 174.498016,86.626060 
	C171.179413,90.826317 168.478073,95.000153 165.029221,98.420128 
	C160.679871,102.733047 152.029175,103.057106 149.448944,94.680046 
	C149.146057,91.449928 149.146057,88.862198 149.146057,85.531586 
	C141.492996,85.531586 134.287598,85.531586 127.082199,85.531586 
M168.661758,71.721794 
	C161.189865,69.487511 158.892975,70.748596 155.646698,79.633423 
	C158.248993,79.821167 160.566696,80.114723 162.886520,80.132721 
	C170.720581,80.193512 170.936462,79.889091 168.661758,71.721794 
M161.479187,86.844269 
	C160.480835,86.844276 159.442429,86.667267 158.492752,86.882263 
	C156.688736,87.290680 154.935516,87.923454 153.161209,88.463043 
	C154.201416,90.596115 154.935776,92.989014 156.424347,94.741180 
	C157.067795,95.498581 159.697006,95.541649 160.679901,94.850594 
	C163.336624,92.982666 165.594070,90.546837 168.009918,88.336304 
	C167.742142,87.921326 167.474365,87.506355 167.206589,87.091377 
	C165.607071,87.009003 164.007553,86.926628 161.479187,86.844269 
z"/>
<path fill="#800002" opacity="1.000000" stroke="none" 
	d="
M135.038239,139.322571 
	C135.361679,139.366837 135.941101,139.893509 135.933197,140.411240 
	C135.605713,161.892029 135.225586,183.372009 134.487564,205.130295 
	C134.422134,183.539261 134.721207,161.670029 135.038239,139.322571 
z"/>
<path fill="#800002" opacity="1.000000" stroke="none" 
	d="
M56.132641,97.814850 
	C56.515907,98.674271 57.125317,100.050560 57.128510,101.428268 
	C57.175404,121.645622 57.141525,141.863159 56.966980,162.523117 
	C56.537949,161.707336 56.035896,160.449356 56.034435,159.190796 
	C56.010937,138.904709 56.051121,118.618530 56.132641,97.814850 
z"/>
<path fill="#800002" opacity="1.000000" stroke="none" 
	d="
M191.960739,164.706451 
	C191.633652,163.509750 191.072266,161.834808 191.056381,160.154709 
	C190.973801,151.420654 191.030212,142.685272 191.151291,133.496246 
	C191.510376,139.619583 191.808212,146.195663 191.982590,152.775009 
	C192.083679,156.589233 191.986206,160.408722 191.960739,164.706451 
z"/>
<path fill="#800002" opacity="1.000000" stroke="none" 
	d="
M127.280151,85.915871 
	C134.287598,85.531586 141.492996,85.531586 149.146057,85.531586 
	C149.146057,88.862198 149.146057,91.449928 149.156448,94.497574 
	C148.844009,94.600487 148.201797,94.198051 148.245178,93.893135 
	C149.268707,86.696808 144.889038,86.619858 139.636032,86.911354 
	C135.607086,87.134926 131.532425,86.534256 127.280151,85.915871 
z"/>
<path fill="#800002" opacity="1.000000" stroke="none" 
	d="
M147.292603,150.708954 
	C146.907150,142.624268 146.820099,134.246506 146.960022,125.451508 
	C147.321671,133.494812 147.456345,141.955368 147.292603,150.708954 
z"/>
<path fill="#800002" opacity="1.000000" stroke="none" 
	d="
M94.697693,87.956711 
	C86.953621,88.333183 78.990150,88.347450 70.566422,88.397873 
	C70.556488,88.002464 71.010445,87.191521 71.456627,87.195778 
	C79.131088,87.268990 86.804588,87.442780 94.697693,87.956711 
z"/>
<path fill="#88021C" opacity="1.000000" stroke="none" 
	d="
M71.876274,131.731384 
	C76.468285,131.751312 81.073479,131.555038 85.649673,131.834213 
	C96.680969,132.507126 102.999130,139.075775 103.097664,150.519318 
	C103.197327,162.093964 96.491875,170.298660 87.340485,171.567276 
	C83.248215,172.134598 79.054367,171.969147 74.374924,171.619461 
	C72.860718,169.253265 71.110321,167.436417 71.030312,165.548752 
	C70.706123,157.900192 70.794540,150.227936 70.939842,142.568405 
	C71.008453,138.951447 71.549362,135.343430 71.876274,131.731384 
z"/>
<path fill="#88021B" opacity="1.000000" stroke="none" 
	d="
M87.032082,94.892830 
	C95.664268,97.041916 99.352119,101.259514 98.983925,108.561531 
	C98.469315,118.767357 94.304665,123.591492 84.094475,124.748199 
	C80.255249,124.367752 77.095383,124.422546 74.004234,123.988213 
	C72.898758,123.832878 71.098625,122.517250 71.077255,121.693306 
	C70.859749,113.306000 70.944305,104.910866 70.944305,96.633034 
	C76.813461,95.998169 81.922775,95.445496 87.032082,94.892830 
z"/>
<path fill="#953136" opacity="1.000000" stroke="none" 
	d="
M86.665543,94.705597 
	C81.922775,95.445496 76.813461,95.998169 70.944305,96.633034 
	C70.944305,104.910866 70.859749,113.306000 71.077255,121.693306 
	C71.098625,122.517250 72.898758,123.832878 74.004234,123.988213 
	C77.095383,124.422546 80.255249,124.367752 83.701256,124.773682 
	C79.327652,125.377884 74.640785,125.714409 69.735260,126.066635 
	C69.735260,115.466789 69.735260,105.508385 69.735260,94.518364 
	C75.635895,94.518364 80.967445,94.518364 86.665543,94.705597 
z"/>
<path fill="#953136" opacity="1.000000" stroke="none" 
	d="
M71.440712,131.724258 
	C71.549362,135.343430 71.008453,138.951447 70.939842,142.568405 
	C70.794540,150.227936 70.706123,157.900192 71.030312,165.548752 
	C71.110321,167.436417 72.860718,169.253265 73.939728,171.460144 
	C71.235748,172.321457 69.503510,171.220474 69.470222,168.322998 
	C69.334877,156.542542 69.283852,144.760864 69.306885,132.979843 
	C69.307709,132.557831 70.414040,132.137985 71.440712,131.724258 
z"/>
<path fill="#88021C" opacity="1.000000" stroke="none" 
	d="
M168.877197,72.095306 
	C170.936462,79.889091 170.720581,80.193512 162.886520,80.132721 
	C160.566696,80.114723 158.248993,79.821167 155.646698,79.633423 
	C158.892975,70.748596 161.189865,69.487511 168.877197,72.095306 
z"/>
<path fill="#88021C" opacity="1.000000" stroke="none" 
	d="
M161.943604,86.844261 
	C164.007553,86.926628 165.607071,87.009003 167.206589,87.091377 
	C167.474365,87.506355 167.742142,87.921326 168.009918,88.336304 
	C165.594070,90.546837 163.336624,92.982666 160.679901,94.850594 
	C159.697006,95.541649 157.067795,95.498581 156.424347,94.741180 
	C154.935776,92.989014 154.201416,90.596115 153.161209,88.463043 
	C154.935516,87.923454 156.688736,87.290680 158.492752,86.882263 
	C159.442429,86.667267 160.480835,86.844276 161.943604,86.844261 
z"/>
</svg>